<?xml version="1.0" encoding="UTF-8" standalone="no"?>
<!DOCTYPE svg PUBLIC "-//W3C//DTD SVG 1.1//EN"
 "http://www.w3.org/Graphics/SVG/1.1/DTD/svg11.dtd">
<!-- Generated by graphviz version 2.38.0 (20140413.2041)
 -->
<!-- Title: G Pages: 1 -->
<svg width="799pt" height="151pt"
 viewBox="0.00 0.00 799.37 151.30" xmlns="http://www.w3.org/2000/svg" xmlns:xlink="http://www.w3.org/1999/xlink">
<g id="graph0" class="graph" transform="scale(1 1) rotate(0) translate(21.6 129.699)">
<title>G</title>
<polygon fill="#111111" stroke="none" points="-21.6,21.6 -21.6,-129.699 777.771,-129.699 777.771,21.6 -21.6,21.6"/>
<!-- App.jsx -->
<g id="node1" class="node"><title>App.jsx</title>
<path fill="none" stroke="#c6c5fe" d="M159.492,-66.1482C159.492,-66.1482 113.804,-66.1482 113.804,-66.1482 109.771,-66.1482 105.738,-62.1152 105.738,-58.0823 105.738,-58.0823 105.738,-50.0164 105.738,-50.0164 105.738,-45.9834 109.771,-41.9505 113.804,-41.9505 113.804,-41.9505 159.492,-41.9505 159.492,-41.9505 163.525,-41.9505 167.558,-45.9834 167.558,-50.0164 167.558,-50.0164 167.558,-58.0823 167.558,-58.0823 167.558,-62.1152 163.525,-66.1482 159.492,-66.1482"/>
<text text-anchor="middle" x="136.648" y="-50.8986" font-family="Arial" font-size="14.00" fill="#c6c5fe">App.jsx</text>
</g>
<!-- router.jsx -->
<g id="node2" class="node"><title>router.jsx</title>
<path fill="none" stroke="#c6c5fe" d="M274.461,-66.1482C274.461,-66.1482 217.993,-66.1482 217.993,-66.1482 213.96,-66.1482 209.927,-62.1152 209.927,-58.0823 209.927,-58.0823 209.927,-50.0164 209.927,-50.0164 209.927,-45.9834 213.96,-41.9505 217.993,-41.9505 217.993,-41.9505 274.461,-41.9505 274.461,-41.9505 278.494,-41.9505 282.527,-45.9834 282.527,-50.0164 282.527,-50.0164 282.527,-58.0823 282.527,-58.0823 282.527,-62.1152 278.494,-66.1482 274.461,-66.1482"/>
<text text-anchor="middle" x="246.227" y="-50.8986" font-family="Arial" font-size="14.00" fill="#c6c5fe">router.jsx</text>
</g>
<!-- App.jsx&#45;&gt;router.jsx -->
<g id="edge1" class="edge"><title>App.jsx&#45;&gt;router.jsx</title>
<path fill="none" stroke="#757575" d="M167.615,-54.0493C177.509,-54.0493 188.75,-54.0493 199.546,-54.0493"/>
<polygon fill="#757575" stroke="#757575" points="199.701,-57.5494 209.701,-54.0493 199.701,-50.5494 199.701,-57.5494"/>
</g>
<!-- about/about.jsx -->
<g id="node4" class="node"><title>about/about.jsx</title>
<path fill="none" stroke="#c6c5fe" d="M466.602,-108.148C466.602,-108.148 371.817,-108.148 371.817,-108.148 367.784,-108.148 363.751,-104.115 363.751,-100.082 363.751,-100.082 363.751,-92.0164 363.751,-92.0164 363.751,-87.9834 367.784,-83.9505 371.817,-83.9505 371.817,-83.9505 466.602,-83.9505 466.602,-83.9505 470.635,-83.9505 474.667,-87.9834 474.667,-92.0164 474.667,-92.0164 474.667,-100.082 474.667,-100.082 474.667,-104.115 470.635,-108.148 466.602,-108.148"/>
<text text-anchor="middle" x="419.209" y="-92.8986" font-family="Arial" font-size="14.00" fill="#c6c5fe">about/about.jsx</text>
</g>
<!-- router.jsx&#45;&gt;about/about.jsx -->
<g id="edge6" class="edge"><title>router.jsx&#45;&gt;about/about.jsx</title>
<path fill="none" stroke="#757575" d="M282.668,-65.0678C294.095,-68.4605 306.85,-72.0804 318.627,-75.0493 329.824,-77.872 341.795,-80.6222 353.414,-83.1528"/>
<polygon fill="#757575" stroke="#757575" points="352.994,-86.6423 363.505,-85.3166 354.461,-79.7979 352.994,-86.6423"/>
</g>
<!-- customers/customer&#45;edit.jsx -->
<g id="node5" class="node"><title>customers/customer&#45;edit.jsx</title>
<path fill="none" stroke="#c6c5fe" d="M506.412,-66.1482C506.412,-66.1482 332.007,-66.1482 332.007,-66.1482 327.974,-66.1482 323.941,-62.1152 323.941,-58.0823 323.941,-58.0823 323.941,-50.0164 323.941,-50.0164 323.941,-45.9834 327.974,-41.9505 332.007,-41.9505 332.007,-41.9505 506.412,-41.9505 506.412,-41.9505 510.445,-41.9505 514.478,-45.9834 514.478,-50.0164 514.478,-50.0164 514.478,-58.0823 514.478,-58.0823 514.478,-62.1152 510.445,-66.1482 506.412,-66.1482"/>
<text text-anchor="middle" x="419.209" y="-50.8986" font-family="Arial" font-size="14.00" fill="#c6c5fe">customers/customer&#45;edit.jsx</text>
</g>
<!-- router.jsx&#45;&gt;customers/customer&#45;edit.jsx -->
<g id="edge7" class="edge"><title>router.jsx&#45;&gt;customers/customer&#45;edit.jsx</title>
<path fill="none" stroke="#757575" d="M282.655,-54.0493C292.016,-54.0493 302.614,-54.0493 313.659,-54.0493"/>
<polygon fill="#757575" stroke="#757575" points="313.905,-57.5494 323.905,-54.0493 313.905,-50.5494 313.905,-57.5494"/>
</g>
<!-- customers/customer&#45;index.jsx -->
<g id="node7" class="node"><title>customers/customer&#45;index.jsx</title>
<path fill="none" stroke="#cfffac" d="M511.809,-24.1482C511.809,-24.1482 326.61,-24.1482 326.61,-24.1482 322.577,-24.1482 318.544,-20.1152 318.544,-16.0823 318.544,-16.0823 318.544,-8.01637 318.544,-8.01637 318.544,-3.98343 322.577,0.0495191 326.61,0.0495191 326.61,0.0495191 511.809,0.0495191 511.809,0.0495191 515.842,0.0495191 519.875,-3.98343 519.875,-8.01637 519.875,-8.01637 519.875,-16.0823 519.875,-16.0823 519.875,-20.1152 515.842,-24.1482 511.809,-24.1482"/>
<text text-anchor="middle" x="419.209" y="-8.89863" font-family="Arial" font-size="14.00" fill="#cfffac">customers/customer&#45;index.jsx</text>
</g>
<!-- router.jsx&#45;&gt;customers/customer&#45;index.jsx -->
<g id="edge8" class="edge"><title>router.jsx&#45;&gt;customers/customer&#45;index.jsx</title>
<path fill="none" stroke="#757575" d="M282.668,-43.0308C294.095,-39.6382 306.85,-36.0182 318.627,-33.0493 327.846,-30.7253 337.589,-28.4505 347.228,-26.3069"/>
<polygon fill="#757575" stroke="#757575" points="348.189,-29.6797 357.21,-24.1239 346.693,-22.8413 348.189,-29.6797"/>
</g>
<!-- about/about&#45;router.jsx -->
<g id="node3" class="node"><title>about/about&#45;router.jsx</title>
<path fill="none" stroke="#cfffac" d="M723.836,-108.148C723.836,-108.148 588.127,-108.148 588.127,-108.148 584.094,-108.148 580.061,-104.115 580.061,-100.082 580.061,-100.082 580.061,-92.0164 580.061,-92.0164 580.061,-87.9834 584.094,-83.9505 588.127,-83.9505 588.127,-83.9505 723.836,-83.9505 723.836,-83.9505 727.869,-83.9505 731.902,-87.9834 731.902,-92.0164 731.902,-92.0164 731.902,-100.082 731.902,-100.082 731.902,-104.115 727.869,-108.148 723.836,-108.148"/>
<text text-anchor="middle" x="655.981" y="-92.8986" font-family="Arial" font-size="14.00" fill="#cfffac">about/about&#45;router.jsx</text>
</g>
<!-- about/about.jsx&#45;&gt;about/about&#45;router.jsx -->
<g id="edge2" class="edge"><title>about/about.jsx&#45;&gt;about/about&#45;router.jsx</title>
<path fill="none" stroke="#757575" d="M474.957,-96.0493C503.199,-96.0493 538.284,-96.0493 569.958,-96.0493"/>
<polygon fill="#757575" stroke="#757575" points="570.109,-99.5494 580.109,-96.0493 570.109,-92.5494 570.109,-99.5494"/>
</g>
<!-- customers/customer&#45;fields.jsx -->
<g id="node6" class="node"><title>customers/customer&#45;fields.jsx</title>
<path fill="none" stroke="#cfffac" d="M748.295,-66.1482C748.295,-66.1482 563.668,-66.1482 563.668,-66.1482 559.635,-66.1482 555.602,-62.1152 555.602,-58.0823 555.602,-58.0823 555.602,-50.0164 555.602,-50.0164 555.602,-45.9834 559.635,-41.9505 563.668,-41.9505 563.668,-41.9505 748.295,-41.9505 748.295,-41.9505 752.328,-41.9505 756.361,-45.9834 756.361,-50.0164 756.361,-50.0164 756.361,-58.0823 756.361,-58.0823 756.361,-62.1152 752.328,-66.1482 748.295,-66.1482"/>
<text text-anchor="middle" x="655.981" y="-50.8986" font-family="Arial" font-size="14.00" fill="#cfffac">customers/customer&#45;fields.jsx</text>
</g>
<!-- customers/customer&#45;edit.jsx&#45;&gt;customers/customer&#45;fields.jsx -->
<g id="edge3" class="edge"><title>customers/customer&#45;edit.jsx&#45;&gt;customers/customer&#45;fields.jsx</title>
<path fill="none" stroke="#757575" d="M514.347,-54.0493C524.489,-54.0493 534.872,-54.0493 545.177,-54.0493"/>
<polygon fill="#757575" stroke="#757575" points="545.444,-57.5494 555.444,-54.0493 545.444,-50.5494 545.444,-57.5494"/>
</g>
<!-- index.css -->
<g id="node8" class="node"><title>index.css</title>
<path fill="none" stroke="#cfffac" d="M165.941,-24.1482C165.941,-24.1482 107.355,-24.1482 107.355,-24.1482 103.322,-24.1482 99.2887,-20.1152 99.2887,-16.0823 99.2887,-16.0823 99.2887,-8.01637 99.2887,-8.01637 99.2887,-3.98343 103.322,0.0495191 107.355,0.0495191 107.355,0.0495191 165.941,0.0495191 165.941,0.0495191 169.974,0.0495191 174.007,-3.98343 174.007,-8.01637 174.007,-8.01637 174.007,-16.0823 174.007,-16.0823 174.007,-20.1152 169.974,-24.1482 165.941,-24.1482"/>
<text text-anchor="middle" x="136.648" y="-8.89863" font-family="Arial" font-size="14.00" fill="#cfffac">index.css</text>
</g>
<!-- index.js -->
<g id="node9" class="node"><title>index.js</title>
<path fill="none" stroke="#c6c5fe" d="M55.639,-45.1482C55.639,-45.1482 7.82977,-45.1482 7.82977,-45.1482 3.79683,-45.1482 -0.236119,-41.1152 -0.236119,-37.0823 -0.236119,-37.0823 -0.236119,-29.0164 -0.236119,-29.0164 -0.236119,-24.9834 3.79683,-20.9505 7.82977,-20.9505 7.82977,-20.9505 55.639,-20.9505 55.639,-20.9505 59.6719,-20.9505 63.7049,-24.9834 63.7049,-29.0164 63.7049,-29.0164 63.7049,-37.0823 63.7049,-37.0823 63.7049,-41.1152 59.6719,-45.1482 55.639,-45.1482"/>
<text text-anchor="middle" x="31.7344" y="-29.8986" font-family="Arial" font-size="14.00" fill="#c6c5fe">index.js</text>
</g>
<!-- index.js&#45;&gt;App.jsx -->
<g id="edge4" class="edge"><title>index.js&#45;&gt;App.jsx</title>
<path fill="none" stroke="#757575" d="M63.6118,-39.35C73.6622,-41.4008 84.9665,-43.7075 95.5887,-45.875"/>
<polygon fill="#757575" stroke="#757575" points="95.0026,-49.3275 105.501,-47.8976 96.4022,-42.4688 95.0026,-49.3275"/>
</g>
<!-- index.js&#45;&gt;index.css -->
<g id="edge5" class="edge"><title>index.js&#45;&gt;index.css</title>
<path fill="none" stroke="#757575" d="M63.6118,-26.7486C71.6973,-25.0988 80.5943,-23.2833 89.2948,-21.5079"/>
<polygon fill="#757575" stroke="#757575" points="90.2594,-24.8833 99.3577,-19.4545 88.8598,-18.0246 90.2594,-24.8833"/>
</g>
</g>
</svg>
